<?xml version="1.0" encoding="utf-8"?>
<!-- Generator: Adobe Illustrator 24.0.1, SVG Export Plug-In . SVG Version: 6.00 Build 0)  -->
<svg version="1.1" id="katman_1" xmlns="http://www.w3.org/2000/svg" xmlns:xlink="http://www.w3.org/1999/xlink" x="0px" y="0px"
	 viewBox="0 0 85 85" style="enable-background:new 0 0 85 85;" xml:space="preserve">
<style type="text/css">
	.st0{fill:#56AF31;}
	.st1{fill:#FFD300;}
	.st2{fill:#312783;}
	.st3{fill:#FFFFFF;}
	.st4{fill:#009545;}
	.st5{fill:#068037;}
</style>
<g>
	<g>
		<path class="st0" d="M1.3,32.3C6.9,9.5,29.9-4.4,52.7,1.3c22.8,5.6,36.7,28.7,31.1,51.5c-5.6,22.8-28.7,36.7-51.5,31.1
			C9.5,78.1-4.4,55.1,1.3,32.3"/>
	</g>
	<polygon class="st1" points="2.9,42.7 42.2,67.8 81.5,42.7 42.2,17.6 	"/>
	<g>
		<path class="st2" d="M42.2,25.9c9.3,0,16.8,7.5,16.8,16.8c0,9.3-7.5,16.8-16.8,16.8c-9.3,0-16.8-7.5-16.8-16.8
			C25.4,33.4,32.9,25.9,42.2,25.9"/>
		<path class="st3" d="M58.9,44.4c-7.4-5.9-16.8-9.2-26.9-8.9c-1.8,0.1-3.6,0.3-5.3,0.5c-0.4,0.8-0.7,1.7-0.9,2.6
			c2-0.4,4.1-0.7,6.2-0.7c10-0.4,19.3,3.2,26.3,9.2C58.7,46.2,58.8,45.3,58.9,44.4"/>
	</g>
	<path class="st4" d="M27.6,37.1l0.2,0.4l0.3,0.1l0.3-0.2l0.1-0.4l-0.2-0.4l-0.3-0.1l-0.3,0.2L27.6,37.1z M27.2,37.2l0-0.4l0.1-0.2
		l0.2-0.2l0.3-0.1l0.6,0.1l0.3,0.6l-0.1,0.6l-0.5,0.3l-0.6-0.1L27.2,37.2z"/>
	<path class="st4" d="M29.8,36.7l0.2,0l0.3,0l0.1-0.1l0-0.1l-0.1-0.1l-0.1-0.1l-0.2,0l-0.3,0L29.8,36.7z M29.6,37.7L29.4,36l0.7-0.1
		l0.4,0l0.2,0.1l0.1,0.3l-0.1,0.3l-0.3,0.2l0.2,0.1l0.2,0.2l0.2,0.3l-0.4,0l-0.3-0.3L30.2,37l-0.1-0.1l-0.2,0l-0.1,0l0.1,0.7
		L29.6,37.7z"/>
	<path class="st4" d="M31.9,36.1l0,1.1l0.2,0l0.2,0l0.1-0.1l0.1-0.2l0-0.3l0-0.3l-0.1-0.2l-0.2-0.1l-0.3,0L31.9,36.1z M31.5,35.9
		l0.6,0l0.3,0l0.3,0.1l0.2,0.3l0.1,0.4l0,0.4l-0.2,0.3l-0.2,0.1l-0.3,0l-0.6,0L31.5,35.9z"/>
	<polygon class="st4" points="33.6,37.4 33.6,35.8 34.9,35.8 34.8,36.1 34,36.1 34,36.5 34.8,36.5 34.8,36.7 34,36.7 33.9,37.2 
		34.9,37.2 34.9,37.5 	"/>
	<polygon class="st4" points="35.5,37.5 35.6,35.9 36.1,35.9 36.4,37 36.7,35.9 37.2,36 37.1,37.6 36.8,37.6 36.9,36.3 36.5,37.6 
		36.2,37.5 35.9,36.2 35.8,37.5 	"/>
	<polygon class="st4" points="38.8,37.8 39,36.2 40.3,36.4 40.2,36.6 39.3,36.5 39.3,36.9 40.1,37 40.1,37.3 39.2,37.1 39.2,37.6 
		40.1,37.7 40,38 	"/>
	<path class="st4" d="M42.3,37l-0.1,0.5l0.2,0l0.3,0l0.1-0.1l0.1-0.1l0-0.2l-0.1-0.1l-0.2-0.1L42.3,37z M41.7,38.3l0.4-1.6l0.5,0.1
		l0.4,0.1l0.2,0.2l0,0.3L43,37.7l-0.2,0.1l-0.2,0l-0.3-0.1l-0.2,0L42,38.4L41.7,38.3z"/>
	<path class="st4" d="M44.1,37.9l0.2,0.1l0.3,0.1l0.1,0l0.1-0.1l0-0.1l-0.1-0.1l-0.2-0.1l-0.2-0.1L44.1,37.9z M43.5,38.7l0.5-1.6
		l0.7,0.2l0.4,0.1l0.1,0.2V38L45,38.2l-0.4,0.1l0.1,0.2l0.1,0.3l0.1,0.4L44.6,39l-0.1-0.4l-0.1-0.3l-0.1-0.1l-0.2-0.1l-0.1,0
		l-0.2,0.7L43.5,38.7z"/>
	<path class="st4" d="M46,38.6l0,0.4l0.3,0.2l0.4,0l0.3-0.4l0-0.4l-0.3-0.2l-0.4,0L46,38.6z M45.7,38.5l0.2-0.4l0.2-0.2l0.2-0.1
		l0.4,0.1l0.5,0.4V39l-0.4,0.5l-0.6,0l-0.5-0.4V38.5z"/>
	<polygon class="st4" points="48.4,39.8 48.5,39.5 49.2,39.8 49,40.4 48.6,40.5 48.2,40.4 47.8,40.1 47.7,39.7 47.8,39.3 48,38.9 
		48.4,38.7 48.8,38.8 49.2,39.1 49.3,39.5 49,39.4 48.9,39.2 48.7,39.1 48.4,39 48.1,39.4 48,39.8 48.3,40.1 48.5,40.1 48.7,40.1 
		48.8,39.9 	"/>
	<path class="st4" d="M50.2,40.2l0.2,0.1l0.3,0.1l0.1,0l0.1-0.1l0-0.1L50.8,40l-0.2-0.1l-0.2-0.1L50.2,40.2z M49.5,40.9l0.7-1.5
		l0.6,0.3l0.3,0.2l0.1,0.2l-0.1,0.3L51,40.6l-0.4,0l0.1,0.2l0.1,0.3l0,0.4l-0.4-0.2l-0.1-0.4l-0.1-0.3l-0.1-0.1l-0.1-0.1l-0.1,0
		L49.8,41L49.5,40.9z"/>
	<polygon class="st4" points="51.3,41.8 52.1,40.3 53.2,40.9 53,41.2 52.3,40.7 52.1,41.1 52.8,41.4 52.7,41.7 52,41.3 51.7,41.7 
		52.5,42.1 52.4,42.4 	"/>
	<polygon class="st4" points="53.2,42.2 53.5,42.3 53.5,42.6 53.6,42.8 53.9,42.9 54,42.8 54,42.7 54,42.5 53.8,42.3 53.5,42 
		53.6,41.6 53.8,41.5 54,41.4 54.3,41.6 54.7,41.9 54.6,42.3 54.3,42.2 54.3,42 54.2,41.8 54,41.7 53.9,41.8 53.9,41.9 54.1,42.2 
		54.3,42.4 54.4,42.7 54.3,42.9 54.1,43.1 53.8,43.2 53.5,43 53.1,42.7 	"/>
	<polygon class="st4" points="54.8,43.2 55.1,43.4 55.1,43.6 55.2,43.8 55.5,43.9 55.6,43.8 55.7,43.7 55.6,43.6 55.4,43.4 55.2,43 
		55.3,42.7 55.5,42.5 55.7,42.5 56,42.6 56.3,43 56.3,43.4 56,43.2 56,43 55.9,42.9 55.6,42.8 55.5,42.8 55.5,43 55.7,43.2 
		55.9,43.5 56,43.8 55.9,44 55.7,44.2 55.4,44.2 55.1,44.1 54.8,43.7 	"/>
	<path class="st4" d="M56.9,44.3l-0.1,0.4l0.2,0.3l0.3,0.1l0.4-0.3l0.2-0.4l-0.2-0.3L57.2,44L56.9,44.3z M56.6,44.1l0.3-0.3l0.3-0.1
		l0.3,0l0.3,0.2l0.3,0.5L57.9,45l-0.5,0.4l-0.6-0.2l-0.3-0.5L56.6,44.1z"/>
	<polygon class="st3" points="47.5,36.3 47.7,36.8 48.2,36.8 47.8,37.1 47.9,37.6 47.5,37.3 47.1,37.6 47.3,37.1 46.9,36.8 
		47.4,36.8 	"/>
	<polygon class="st3" points="42.3,49.9 42.4,50.4 42.9,50.4 42.5,50.7 42.7,51.1 42.3,50.8 41.9,51.1 42,50.7 41.6,50.4 42.1,50.4 
			"/>
	<polygon class="st3" points="54.2,48.2 54.4,48.7 54.9,48.7 54.5,49 54.6,49.5 54.2,49.2 53.8,49.5 53.9,49 53.5,48.7 54,48.7 	"/>
	<polygon class="st3" points="56.6,48.6 56.7,48.9 57,48.9 56.7,49.1 56.8,49.4 56.6,49.2 56.3,49.4 56.4,49.1 56.1,48.9 56.5,48.9 
			"/>
	<polygon class="st3" points="54.9,49.8 55,50.2 55.5,50.2 55.1,50.5 55.2,50.9 54.9,50.7 54.5,50.9 54.7,50.5 54.3,50.2 54.8,50.2 
			"/>
	<polygon class="st3" points="53.8,51.2 54,51.6 54.4,51.6 54.1,51.9 54.2,52.3 53.8,52 53.5,52.3 53.6,51.9 53.3,51.6 53.7,51.6 	
		"/>
	<polygon class="st3" points="52.5,52.2 52.6,52.5 52.9,52.5 52.7,52.7 52.8,53.1 52.5,52.9 52.2,53.1 52.3,52.7 52.1,52.5 
		52.4,52.5 	"/>
	<polygon class="st3" points="50.7,51.9 50.8,52.2 51.2,52.2 50.9,52.4 51,52.7 50.7,52.5 50.5,52.7 50.6,52.4 50.3,52.2 50.6,52.2 
			"/>
	<polygon class="st3" points="48.8,52.5 48.9,52.8 49.3,52.8 49,53 49.1,53.3 48.8,53.1 48.5,53.3 48.6,53 48.4,52.8 48.7,52.8 	"/>
	<polygon class="st3" points="50.8,55.2 50.9,55.6 51.2,55.6 50.9,55.7 51,56.1 50.8,55.9 50.5,56.1 50.6,55.7 50.3,55.6 50.6,55.6 
			"/>
	<polygon class="st3" points="47.3,53.8 47.5,54.2 47.9,54.2 47.5,54.5 47.7,54.9 47.3,54.6 47,54.9 47.1,54.5 46.7,54.2 47.2,54.2 
			"/>
	<polygon class="st3" points="46,52 46.1,52.3 46.5,52.3 46.2,52.5 46.3,52.9 46,52.7 45.7,52.9 45.8,52.5 45.6,52.3 45.9,52.3 	"/>
	<polygon class="st3" points="50.8,53.4 50.9,53.8 51.4,53.8 51,54.1 51.2,54.5 50.8,54.2 50.5,54.5 50.6,54.1 50.2,53.8 50.7,53.8 
			"/>
	<polygon class="st3" points="42.3,56.1 42.3,56.2 42.5,56.2 42.3,56.3 42.4,56.5 42.3,56.4 42.1,56.5 42.2,56.3 42,56.2 42.2,56.2 
			"/>
	<polygon class="st3" points="46.7,41.4 46.8,41.8 47.2,41.8 46.9,42 47,42.3 46.7,42.1 46.4,42.3 46.5,42 46.2,41.8 46.6,41.8 	"/>
	<polygon class="st3" points="42.3,45.1 42.4,45.5 42.8,45.5 42.5,45.7 42.6,46.1 42.3,45.9 42,46.1 42.1,45.7 41.8,45.5 42.1,45.5 
			"/>
	<polygon class="st3" points="44.2,46.7 44.4,47 44.8,47 44.4,47.3 44.6,47.7 44.2,47.4 43.9,47.7 44,47.3 43.7,47 44.1,47 	"/>
	<polygon class="st3" points="40.6,46.7 40.7,47 41,47 40.7,47.2 40.8,47.5 40.6,47.3 40.3,47.5 40.4,47.2 40.1,47 40.4,47 	"/>
	<polygon class="st3" points="41.4,48.1 41.4,48.3 41.7,48.3 41.5,48.4 41.5,48.6 41.4,48.5 41.2,48.6 41.3,48.4 41.1,48.3 
		41.3,48.3 	"/>
	<polygon class="st3" points="28.3,39.2 28.5,39.7 29,39.7 28.6,40 28.7,40.5 28.3,40.2 27.9,40.5 28.1,40 27.7,39.7 28.2,39.7 	"/>
	<polygon class="st3" points="35.7,43.1 35.8,43.4 36.2,43.4 35.9,43.7 36,44.1 35.7,43.8 35.3,44.1 35.5,43.7 35.1,43.4 35.5,43.4 
			"/>
	<polygon class="st3" points="29.8,46.4 30,46.9 30.5,46.9 30.1,47.2 30.2,47.6 29.8,47.3 29.4,47.6 29.6,47.2 29.2,46.9 29.7,46.9 
			"/>
	<polygon class="st3" points="31.5,45.7 31.6,45.9 31.8,45.9 31.6,46.1 31.7,46.3 31.5,46.1 31.3,46.3 31.4,46.1 31.2,45.9 
		31.4,45.9 	"/>
	<polygon class="st3" points="33.4,48.2 33.5,48.6 34,48.6 33.6,48.8 33.7,49.2 33.4,49 33.1,49.2 33.2,48.8 32.8,48.6 33.3,48.6 	
		"/>
	<polygon class="st3" points="35.4,51.3 35.6,51.8 36.1,51.8 35.6,52.1 35.8,52.5 35.4,52.2 35,52.5 35.2,52.1 34.7,51.8 35.2,51.8 
			"/>
	<polygon class="st3" points="32.8,49.9 33,50.3 33.4,50.3 33.1,50.5 33.2,50.9 32.8,50.7 32.5,50.9 32.6,50.5 32.3,50.3 32.7,50.3 
			"/>
	<polygon class="st3" points="27.7,48.1 27.8,48.4 28.2,48.4 27.9,48.6 28,48.9 27.7,48.7 27.5,48.9 27.6,48.6 27.3,48.4 27.6,48.4 
			"/>
	<path class="st5" d="M44,37.2l-0.5,1.6l0.3,0.1l0.2-0.7l0.1,0l0.2,0.1l0.1,0.1l0.1,0.3l0.1,0.4l0.4,0.1l-0.1-0.4l-0.1-0.3l-0.1-0.2
		l0.4-0.1l0.2-0.3v-0.3L45,37.5l-0.4-0.1L44,37.2z M44.6,38.1L44.3,38l-0.2-0.1l0.1-0.4l0.2,0.1l0.2,0.1l0.1,0.1l0,0.1L44.7,38
		L44.6,38.1z"/>
	<path class="st5" d="M46.3,37.9L46.1,38l-0.2,0.2l-0.2,0.4v0.7l0.5,0.4l0.6,0l0.4-0.5v-0.7L46.7,38L46.3,37.9z M46.2,39.3L46,39.1
		l0-0.4l0.3-0.4l0.4,0l0.3,0.2l0,0.4l-0.3,0.4L46.2,39.3z"/>
	<polygon class="st5" points="48.4,38.7 48,38.9 47.8,39.3 47.7,39.7 47.8,40.1 48.2,40.4 48.6,40.5 49,40.4 49.2,39.8 48.5,39.5 
		48.4,39.8 48.8,39.9 48.7,40.1 48.5,40.1 48.3,40.1 48,39.8 48.1,39.4 48.4,39 48.7,39.1 48.9,39.2 49,39.4 49.3,39.5 49.2,39.1 
		48.8,38.8 	"/>
	<path class="st5" d="M50.2,39.4l-0.7,1.5l0.3,0.1l0.3-0.6l0.1,0l0.1,0.1l0.1,0.1l0.1,0.3l0.1,0.4l0.4,0.2l0-0.4l-0.1-0.3l-0.1-0.2
		l0.4,0l0.2-0.2l0.1-0.3l-0.1-0.2l-0.3-0.2L50.2,39.4z M50.7,40.4l-0.3-0.1l-0.2-0.1l0.2-0.4l0.2,0.1l0.2,0.1l0.1,0.1l0,0.1
		l-0.1,0.1L50.7,40.4z"/>
	<polygon class="st5" points="52.1,40.3 51.3,41.8 52.4,42.4 52.5,42.1 51.7,41.7 52,41.3 52.7,41.7 52.8,41.4 52.1,41.1 52.3,40.7 
		53,41.2 53.2,40.9 	"/>
	<polygon class="st5" points="54,41.4 53.8,41.5 53.6,41.6 53.5,42 53.8,42.3 54,42.5 54,42.7 54,42.8 53.9,42.9 53.6,42.8 
		53.5,42.6 53.5,42.3 53.2,42.2 53.1,42.7 53.5,43 53.8,43.2 54.1,43.1 54.3,42.9 54.4,42.7 54.3,42.4 54.1,42.2 53.9,41.9 
		53.9,41.8 54,41.7 54.2,41.8 54.3,42 54.3,42.2 54.6,42.3 54.7,41.9 54.3,41.6 	"/>
	<polygon class="st5" points="55.7,42.5 55.5,42.5 55.3,42.7 55.2,43 55.4,43.4 55.6,43.6 55.7,43.7 55.6,43.8 55.5,43.9 55.2,43.8 
		55.1,43.6 55.1,43.4 54.8,43.2 54.8,43.7 55.1,44.1 55.4,44.2 55.7,44.2 55.9,44 56,43.8 55.9,43.5 55.7,43.2 55.5,43 55.5,42.8 
		55.6,42.8 55.9,42.9 56,43 56,43.2 56.3,43.4 56.3,43 56,42.6 	"/>
	<path class="st5" d="M57.2,43.7l-0.3,0.1l-0.3,0.3l-0.2,0.6l0.3,0.5l0.6,0.2l0.5-0.4l0.2-0.6l-0.3-0.5l-0.3-0.2L57.2,43.7z
		 M57.2,45.1L56.9,45l-0.2-0.3l0.1-0.4l0.4-0.3l0.3,0.1l0.2,0.3l-0.2,0.4L57.2,45.1z"/>
</g>
</svg>
