<?xml version="1.0" encoding="utf-8"?>
<!-- Generator: Adobe Illustrator 24.0.1, SVG Export Plug-In . SVG Version: 6.00 Build 0)  -->
<svg version="1.1" id="katman_1" xmlns="http://www.w3.org/2000/svg" xmlns:xlink="http://www.w3.org/1999/xlink" x="0px" y="0px"
	 viewBox="0 0 85 85" style="enable-background:new 0 0 85 85;" xml:space="preserve">
<style type="text/css">
	.st0{fill:#E52A18;}
	.st1{fill:#F6F6F6;}
</style>
<g>
	<path class="st0" d="M32.3,83.8C9.5,78.1-4.4,55.1,1.3,32.3C6.9,9.5,29.9-4.4,52.7,1.3c22.8,5.6,36.7,28.7,31.1,51.5
		C78.1,75.5,55.1,89.4,32.3,83.8"/>
	<path class="st0" d="M28.2,82.6V2.5c-13,4.6-23.4,15.5-27,29.8C-4,53.7,7.9,75.3,28.2,82.6"/>
	<path class="st1" d="M51.3,0.9c-0.1,0-0.2,0-0.3-0.1c-0.2,0-0.3-0.1-0.5-0.1c-0.1,0-0.2,0-0.3-0.1c-0.2,0-0.3-0.1-0.5-0.1
		c-0.1,0-0.2,0-0.2,0c-0.2,0-0.4-0.1-0.6-0.1c0,0-0.1,0-0.1,0c-0.2,0-0.5-0.1-0.7-0.1c-0.1,0-0.1,0-0.2,0c-0.2,0-0.4,0-0.5-0.1
		c-0.1,0-0.2,0-0.3,0c-0.2,0-0.3,0-0.5,0c-0.1,0-0.2,0-0.3,0c-0.2,0-0.3,0-0.5,0c-0.1,0-0.2,0-0.2,0c-0.2,0-0.4,0-0.6,0
		c-0.1,0-0.1,0-0.2,0c-0.2,0-0.5,0-0.7,0C44,0,44,0,44,0c-0.2,0-0.4,0-0.6,0c-0.1,0-0.2,0-0.2,0c-0.2,0-0.3,0-0.5,0
		c-0.1,0-0.2,0-0.3,0c-0.2,0-0.3,0-0.5,0c-0.1,0-0.2,0-0.2,0c-0.2,0-0.4,0-0.5,0C41,0,41,0,40.9,0c-0.5,0-1,0-1.5,0.1
		c-0.1,0-0.1,0-0.2,0c-0.2,0-0.4,0-0.5,0c-0.1,0-0.2,0-0.2,0c-0.2,0-0.3,0-0.5,0.1c-0.1,0-0.2,0-0.2,0c-0.2,0-0.4,0-0.5,0.1
		c-0.1,0-0.1,0-0.2,0c-0.5,0.1-1,0.1-1.4,0.2c0,0-0.1,0-0.1,0c-0.2,0-0.4,0.1-0.6,0.1c-0.1,0-0.1,0-0.2,0c-0.2,0-0.3,0.1-0.5,0.1
		c-0.1,0-0.1,0-0.2,0c-0.2,0-0.4,0.1-0.5,0.1c-0.1,0-0.1,0-0.2,0c-0.2,0-0.4,0.1-0.6,0.1l0,0c-0.2,0.1-0.4,0.1-0.7,0.2v0
		c-1.2,0.3-2.5,0.7-3.7,1.1v80.1c1.3,0.5,2.7,0.9,4.1,1.2c5.7,1.4,11.4,1.6,16.9,0.7c0,0,0,0,0.1,0c0.2,0,0.4-0.1,0.6-0.1
		c0,0,0.1,0,0.1,0c0.2,0,0.4-0.1,0.6-0.1c0.1,0,0.1,0,0.2,0c0.2,0,0.3-0.1,0.5-0.1c0.1,0,0.1,0,0.2,0c0.2,0,0.3-0.1,0.5-0.1
		c0.1,0,0.2,0,0.2-0.1c0.2,0,0.3-0.1,0.5-0.1c0.1,0,0.2-0.1,0.3-0.1c0.2,0,0.3-0.1,0.5-0.1c0.2,0,0.3-0.1,0.5-0.1
		c0.1,0,0.2,0,0.2-0.1c0.2,0,0.3-0.1,0.5-0.1c0.1,0,0.2,0,0.2-0.1c0.2,0,0.3-0.1,0.5-0.2c0.1,0,0.1,0,0.2-0.1
		c0.2-0.1,0.3-0.1,0.5-0.2c0.1,0,0.1,0,0.2-0.1c0.2-0.1,0.3-0.1,0.5-0.2c0,0,0.1,0,0.1,0v0c0.1,0,0.2-0.1,0.3-0.1V2.6
		c-0.1,0-0.2-0.1-0.3-0.1v0c-0.2-0.1-0.5-0.2-0.8-0.3c0,0,0,0-0.1,0c-0.3-0.1-0.7-0.2-1-0.3c0,0-0.1,0-0.1,0
		c-0.3-0.1-0.6-0.2-0.9-0.3c-0.1,0-0.1,0-0.2-0.1c-0.4-0.1-0.7-0.2-1.1-0.3c-0.2-0.1-0.5-0.1-0.7-0.2c-0.1,0-0.2,0-0.2-0.1
		C51.6,1,51.4,1,51.3,0.9"/>
	<path class="st0" d="M42.9,58.5h0.5l-0.2-7.3l0.5-0.4c2.3,0.3,4.3,0.5,6.6,0.8l-0.6-2c-0.1-0.4,0-0.7,0.3-0.9l6.7-5.6l-1.4-0.7
		c-0.6-0.2-0.4-0.6-0.2-1.4l1-3.9l-3.9,0.8c-0.4,0.1-0.6-0.2-0.7-0.4l-0.5-1.8l-3.1,3.6c-0.4,0.6-1.3,0.6-1-0.8l1.3-7.2l-1.8,0.9
		c-0.5,0.3-1,0.3-1.3-0.2l-2.5-4.7l-2.5,4.7c-0.3,0.5-0.8,0.5-1.3,0.2l-1.8-0.9l1.3,7.2c0.3,1.3-0.6,1.3-1,0.8l-3.1-3.6l-0.5,1.8
		c-0.1,0.2-0.3,0.5-0.7,0.4L29.6,37l1,3.9c0.2,0.9,0.4,1.2-0.2,1.4L29.1,43l6.7,5.6c0.3,0.2,0.4,0.6,0.3,0.9l-0.6,2
		c2.3-0.3,4.3-0.5,6.6-0.8l0.5,0.4l-0.2,7.3H42.9z"/>
</g>
</svg>
