<?xml version="1.0" encoding="utf-8"?>
<!-- Generator: Adobe Illustrator 24.0.1, SVG Export Plug-In . SVG Version: 6.00 Build 0)  -->
<svg version="1.1" id="katman_1" xmlns="http://www.w3.org/2000/svg" xmlns:xlink="http://www.w3.org/1999/xlink" x="0px" y="0px"
	 viewBox="0 0 85 85" style="enable-background:new 0 0 85 85;" xml:space="preserve">
<style type="text/css">
	.st0{fill:#E52A18;}
	.st1{fill:#FFD300;}
</style>
<g>
	<g>
		<path class="st0" d="M1.3,32.3C6.9,9.5,29.9-4.4,52.7,1.3c22.8,5.6,36.7,28.7,31.1,51.5c-5.6,22.8-28.7,36.7-51.5,31.1
			C9.5,78.1-4.4,55.1,1.3,32.3"/>
	</g>
	<path class="st1" d="M45.2,41.2l-2,2.4l-2.9-1.2L42,45l-2,2.4l3-0.8l1.7,2.6l0.2-3.1l3-0.8L45,44.3L45.2,41.2z M56.7,34.6l-3.1,0
		l-1-3l-1,3l-3.1,0l2.5,1.8l-1,3l2.5-1.8l2.5,1.8l-1-3L56.7,34.6z M51.7,23.2l0.5,3.1l1.4-2.8l3.1,0.5l-2.2-2.2l1.4-2.8l-2.8,1.4
		l-2.2-2.2l0.5,3.1l-2.8,1.4L51.7,23.2z M45.2,9l-2,2.4l-2.9-1.1l1.7,2.6l-2,2.4l3-0.8l1.7,2.6l0.2-3.1l3-0.8L45,12.1L45.2,9z
		 M23.5,22.6l-2.9-9l-2.9,9H8.2l7.7,5.6l-2.9,9l7.7-5.6l7.6,5.6l-2.9-9l7.7-5.6H23.5z"/>
</g>
</svg>
