<?xml version="1.0" encoding="utf-8"?>
<!-- Generator: Adobe Illustrator 24.0.1, SVG Export Plug-In . SVG Version: 6.00 Build 0)  -->
<svg version="1.1" id="katman_1" xmlns="http://www.w3.org/2000/svg" xmlns:xlink="http://www.w3.org/1999/xlink" x="0px" y="0px"
	 viewBox="0 0 85 85" style="enable-background:new 0 0 85 85;" xml:space="preserve">
<style type="text/css">
	.st0{clip-path:url(#SVGID_2_);fill:url(#SVGID_3_);}
	.st1{fill:#24356B;}
	.st2{fill:#F5F1EE;}
	.st3{fill:#E52A18;}
	.st4{fill:#333A63;}
</style>
<g>
	<g>
		<defs>
			<path id="SVGID_1_" d="M42.5,0C23.4,0,6,12.9,1.3,32.3c-5.6,22.8,8.3,45.8,31.1,51.5c22.8,5.6,45.8-8.3,51.5-31.1
				c5.6-22.8-8.3-45.8-31.1-51.5C49.3,0.4,45.9,0,42.5,0C42.5,0,42.5,0,42.5,0"/>
		</defs>
		<clipPath id="SVGID_2_">
			<use xlink:href="#SVGID_1_"  style="overflow:visible;"/>
		</clipPath>
		
			<radialGradient id="SVGID_3_" cx="-1944.8345" cy="2031.2561" r="0.2153" gradientTransform="matrix(197.4678 0 0 -197.4678 384084.6875 401150.1875)" gradientUnits="userSpaceOnUse">
			<stop  offset="0" style="stop-color:#FFFFFF"/>
			<stop  offset="0.7809" style="stop-color:#FFFFFF"/>
			<stop  offset="0.8218" style="stop-color:#FAF9F8"/>
			<stop  offset="0.8832" style="stop-color:#EBE7E3"/>
			<stop  offset="0.9571" style="stop-color:#D1CAC3"/>
			<stop  offset="1" style="stop-color:#BFB6AD"/>
		</radialGradient>
		<rect x="-4.4" y="0" class="st0" width="93.8" height="89.4"/>
	</g>
	<g>
		<path class="st1" d="M1.3,32.3C6.9,9.5,29.9-4.4,52.7,1.3c22.8,5.6,36.7,28.7,31.1,51.5c-5.6,22.8-28.7,36.7-51.5,31.1
			C9.5,78.1-4.4,55.1,1.3,32.3"/>
	</g>
	<g>
		<path class="st2" d="M72.7,12.5L55.6,23.9V2.1c-0.9-0.3-1.9-0.6-2.8-0.8c-8-2-16.1-1.5-23.4,0.8v21.8l-17-11.3
			c-3.9,3.9-7.1,8.7-9.2,14l4.5,3H2c-0.3,0.9-0.5,1.8-0.8,2.7c-2,8.1-1.5,16.2,0.9,23.5h5.6l-4.5,3c2.2,5.2,5.3,9.9,9.4,13.9
			l16.7-11.2v21.3c1,0.3,2,0.6,3,0.8c8,2,16,1.6,23.3-0.8V61.6l16.8,11.2c3.9-3.9,7.2-8.6,9.4-13.9l-4.6-3h5.7
			c0.3-1,0.6-2.1,0.9-3.1c2-7.9,1.6-15.9-0.8-23.1h-5.7l4.6-3.1C79.8,21.3,76.7,16.6,72.7,12.5"/>
	</g>
	<g>
		<path class="st3" d="M22.8,29.6L7,19.1c-1,1.6-2,3.3-2.8,5l8.2,5.5H22.8z M78,19c-1.1-1.6-2.2-3.1-3.5-4.6L55.6,27v2.6H62L78,19z
			 M7.1,66.1c1.1,1.6,2.2,3.1,3.5,4.6l18.7-12.4v-2.4h-6.8L7.1,66.1z M84.4,35.1H50.1V0.7c-5.2-0.9-10.4-0.9-15.3,0v34.4H0.7
			c-0.9,5.2-0.9,10.4,0.1,15.3h34.1v33.9c5.2,1,10.4,0.9,15.3,0v-34h34.2C85.3,45.2,85.3,40,84.4,35.1 M62.4,55.8l15.5,10.3
			c1.1-1.6,2-3.3,2.9-5l-8-5.3L62.4,55.8z"/>
	</g>
	<g>
		<path class="st4" d="M55.6,6.5L55.6,6.5v2.8c0.2-0.5,0.3-1,0.3-1.5C55.8,7.3,55.8,6.9,55.6,6.5"/>
	</g>
</g>
</svg>
