<?xml version="1.0" encoding="utf-8"?>
<!-- Generator: Adobe Illustrator 24.0.1, SVG Export Plug-In . SVG Version: 6.00 Build 0)  -->
<svg version="1.1" id="katman_1" xmlns="http://www.w3.org/2000/svg" xmlns:xlink="http://www.w3.org/1999/xlink" x="0px" y="0px"
	 viewBox="0 0 85 85" style="enable-background:new 0 0 85 85;" xml:space="preserve">
<style type="text/css">
	.st0{fill:#006EB7;}
	.st1{fill:#FFD300;}
</style>
<g>
	<g>
		<path class="st0" d="M1.3,32.3C6.9,9.5,29.9-4.4,52.7,1.3c22.8,5.6,36.7,28.7,31.1,51.5c-5.6,22.8-28.7,36.7-51.5,31.1
			C9.5,78.1-4.4,55.1,1.3,32.3"/>
	</g>
	<path class="st1" d="M15.4,57.7l-1.1-3.3l-1.1,3.4H9.7l2.8,2.1l-1.1,3.3l2.8-2.1l2.8,2.1l-1.1-3.3l2.8-2.1H15.4z M10.1,45.3
		l2.9,2.1L11.8,44l2.8-2.1l-3.5,0L10,38.6L9,42l-3.5,0L8.3,44l-1.1,3.3L10.1,45.3z M59.7,69.8l-1.1-3.3l-1.1,3.3l-3.5,0l2.8,2.1
		l-1.1,3.3l2.9-2.1l2.8,2.1l-1.1-3.3l2.9-2.1L59.7,69.8z M27.4,69.8l-1.1-3.3l-1.1,3.3l-3.5,0l2.8,2.1l-1.1,3.3l2.8-2.1l2.8,2.1
		l-1.1-3.3l2.8-2.1H27.4z M43.8,74.2l-1.1-3.3l-1.1,3.4h-3.5l2.8,2.1l-1.1,3.3l2.8-2.1l2.9,2.1l-1.1-3.3l2.8-2.1H43.8z M71.7,57.7
		l-1.1-3.3l-1.1,3.3l-3.5,0l2.9,2.1l-1.1,3.3l2.8-2.1l2.8,2.1l-1.1-3.3l2.8-2.1L71.7,57.7z M79.5,41.9l-3.5,0l-1.1-3.3l-1.1,3.3
		l-3.5,0l2.8,2.1L72,47.3l2.9-2.1l2.8,2.1L76.6,44L79.5,41.9z M67.5,30.9l2.8-2.1l2.8,2.1l-1.1-3.3l2.8-2.1l-3.5,0l-1.1-3.4
		l-1.1,3.4h-3.5l2.9,2.1L67.5,30.9z M58.9,10.4l-1.1,3.3l-3.5,0l2.9,2.1L56,19.2l2.8-2.1l2.8,2.1l-1.1-3.3l2.8-2.1l-3.5,0L58.9,10.4
		z M11.2,31.1l2.8-2.1l2.8,2.1l-1.1-3.3l2.8-2.1h-3.5l-1.1-3.3L13,25.7l-3.5,0l2.8,2.1L11.2,31.1z M23.2,19.1l2.8-2.1l2.8,2.1
		l-1.1-3.3l2.8-2.1h-3.5l-1.1-3.3L25,13.7h-3.5l2.8,2.1L23.2,19.1z M39.6,14.7l2.8-2.1l2.8,2.1l-1.1-3.3l2.8-2.1h-3.5L42.5,6
		l-1.1,3.3h-3.5l2.8,2.1L39.6,14.7z"/>
</g>
</svg>
