<?xml version="1.0" encoding="utf-8"?>
<!-- Generator: Adobe Illustrator 24.0.1, SVG Export Plug-In . SVG Version: 6.00 Build 0)  -->
<svg version="1.1" id="katman_1" xmlns="http://www.w3.org/2000/svg" xmlns:xlink="http://www.w3.org/1999/xlink" x="0px" y="0px"
	 viewBox="0 0 85 85" style="enable-background:new 0 0 85 85;" xml:space="preserve">
<style type="text/css">
	.st0{fill:#0A3F1F;}
	.st1{fill:#F5F5F5;}
</style>
<g>
	<path class="st0" d="M1.3,32.3C6.9,9.5,29.9-4.4,52.7,1.3c22.8,5.6,36.7,28.7,31,51.5c-5.6,22.8-28.7,36.7-51.5,31
		C9.5,78.1-4.4,55.1,1.3,32.3"/>
	<g>
		<polygon class="st1" points="50.2,33.2 42.2,35.3 49.9,38.3 49.9,38.4 49.3,46.5 54.6,40.2 62.3,43.2 57.8,36.2 60.3,33.3 
			62.9,30.1 63.1,29.9 56.3,31.6 55.1,31.9 54.4,30.8 50.7,25 50.4,29 		"/>
		<path class="st1" d="M66.9,63C53.4,69.1,37.2,64.5,29,51.6c0,0,0,0,0-0.1C21.8,40.3,23,26.1,31,16.2c1.1-1.4,2.4-2.7,3.8-3.9
			c-1.2,0.6-2.5,1.2-3.6,2c-0.4,0.3-0.8,0.5-1.2,0.8c-13.2,9.2-16.9,27.3-8.2,41l0,0.1c9,14.1,27.6,18.2,41.7,9.3
			C64.7,64.7,65.8,63.9,66.9,63z"/>
	</g>
</g>
</svg>
