<?xml version="1.0" encoding="utf-8"?>
<!-- Generator: Adobe Illustrator 24.0.1, SVG Export Plug-In . SVG Version: 6.00 Build 0)  -->
<svg version="1.1" id="katman_1" xmlns="http://www.w3.org/2000/svg" xmlns:xlink="http://www.w3.org/1999/xlink" x="0px" y="0px"
	 viewBox="0 0 85 85" style="enable-background:new 0 0 85 85;" xml:space="preserve">
<style type="text/css">
	.st0{fill:#E73138;}
	.st1{fill:#F5F1EE;}
	.st2{fill:#00528F;}
</style>
<g>
	<g>
		<path class="st0" d="M1.3,32.3C6.9,9.5,29.9-4.4,52.7,1.3c22.8,5.6,36.7,28.7,31.1,51.5c-5.6,22.8-28.7,36.7-51.5,31.1
			C9.5,78.1-4.4,55.1,1.3,32.3"/>
		<path class="st1" d="M2.5,28.2h80.1c-4.6-13-15.5-23.4-29.8-27C31.3-4,9.7,7.9,2.5,28.2"/>
		<path class="st2" d="M84.1,51.3c0-0.1,0-0.2,0.1-0.3c0-0.2,0.1-0.3,0.1-0.5c0-0.1,0-0.2,0.1-0.3c0-0.2,0.1-0.3,0.1-0.5
			c0-0.1,0-0.2,0-0.2c0-0.2,0.1-0.4,0.1-0.6c0,0,0-0.1,0-0.1c0-0.2,0.1-0.5,0.1-0.7c0-0.1,0-0.1,0-0.2c0-0.2,0-0.4,0.1-0.5
			c0-0.1,0-0.2,0-0.3c0-0.2,0-0.3,0-0.5c0-0.1,0-0.2,0-0.3c0-0.2,0-0.3,0-0.5c0-0.1,0-0.2,0-0.2c0-0.2,0-0.4,0-0.6
			c0-0.1,0-0.1,0-0.2c0-0.2,0-0.5,0-0.7c0,0,0-0.1,0-0.1c0-0.2,0-0.4,0-0.6c0-0.1,0-0.2,0-0.2c0-0.2,0-0.3,0-0.5c0-0.1,0-0.2,0-0.3
			c0-0.2,0-0.3,0-0.5c0-0.1,0-0.2,0-0.2c0-0.2,0-0.4,0-0.5c0-0.1,0-0.1,0-0.2c0-0.5,0-1-0.1-1.5c0-0.1,0-0.1,0-0.2
			c0-0.2,0-0.4,0-0.5c0-0.1,0-0.2,0-0.2c0-0.2,0-0.3-0.1-0.5c0-0.1,0-0.2,0-0.2c0-0.2,0-0.4-0.1-0.5c0-0.1,0-0.1,0-0.2
			c-0.1-0.5-0.1-1-0.2-1.4c0,0,0-0.1,0-0.1c0-0.2-0.1-0.4-0.1-0.6c0-0.1,0-0.1,0-0.2c0-0.2-0.1-0.3-0.1-0.5c0-0.1,0-0.1,0-0.2
			c0-0.2-0.1-0.4-0.1-0.5c0-0.1,0-0.1,0-0.2c0-0.2-0.1-0.4-0.1-0.6l0,0c-0.1-0.2-0.1-0.4-0.2-0.7h0c-0.3-1.2-0.7-2.5-1.1-3.7H2.5
			c-0.5,1.3-0.9,2.7-1.2,4.1C-0.2,38-0.3,43.7,0.5,49.2c0,0,0,0,0,0.1c0,0.2,0.1,0.4,0.1,0.6c0,0,0,0.1,0,0.1c0,0.2,0.1,0.4,0.1,0.6
			c0,0.1,0,0.1,0,0.2c0,0.2,0.1,0.4,0.1,0.5c0,0.1,0,0.1,0,0.2c0,0.2,0.1,0.3,0.1,0.5c0,0.1,0,0.2,0.1,0.2c0,0.2,0.1,0.3,0.1,0.5
			c0,0.1,0.1,0.2,0.1,0.3c0,0.2,0.1,0.3,0.1,0.5c0,0.2,0.1,0.3,0.1,0.5c0,0.1,0,0.2,0.1,0.2c0,0.2,0.1,0.3,0.1,0.5
			c0,0.1,0,0.2,0.1,0.2c0,0.2,0.1,0.3,0.2,0.5c0,0.1,0,0.1,0.1,0.2c0.1,0.2,0.1,0.3,0.2,0.5c0,0.1,0,0.1,0.1,0.2
			c0.1,0.2,0.1,0.3,0.2,0.5c0,0,0,0.1,0,0.1h0c0,0.1,0.1,0.2,0.1,0.3h79.8c0-0.1,0.1-0.2,0.1-0.3h0c0.1-0.2,0.2-0.5,0.3-0.8
			c0,0,0,0,0-0.1c0.1-0.3,0.2-0.7,0.3-1c0,0,0-0.1,0-0.1c0.1-0.3,0.2-0.6,0.3-0.9c0-0.1,0-0.1,0.1-0.2c0.1-0.4,0.2-0.7,0.3-1.1
			c0.1-0.2,0.1-0.5,0.2-0.7c0-0.1,0-0.2,0.1-0.2C84,51.6,84.1,51.4,84.1,51.3"/>
	</g>
</g>
</svg>
