<?xml version="1.0" encoding="utf-8"?>
<!-- Generator: Adobe Illustrator 24.0.1, SVG Export Plug-In . SVG Version: 6.00 Build 0)  -->
<svg version="1.1" id="katman_1" xmlns="http://www.w3.org/2000/svg" xmlns:xlink="http://www.w3.org/1999/xlink" x="0px" y="0px"
	 viewBox="0 0 85 85" style="enable-background:new 0 0 85 85;" xml:space="preserve">
<style type="text/css">
	.st0{fill:#56AE31;}
	.st1{fill:#FFFFFF;}
</style>
<g>
	<path class="st0" d="M1.3,32.3C6.9,9.5,29.9-4.4,52.7,1.3c22.8,5.6,36.7,28.7,31,51.5c-5.6,22.8-28.7,36.7-51.5,31
		C9.5,78.1-4.4,55.1,1.3,32.3"/>
	<path class="st1" d="M12.1,27.3L12.1,27.3l-0.2,0.6c0.3-0.5,0.6-1.1,0.7-1.7l-0.2-1.1l-0.7,0.2L11.4,26l0.8-0.1L12.1,27.3z
		 M11.3,34.5L12,34c0.4-0.6,0.5-1.3,0.6-2.1l0.1-0.8l0,0l0.5-1.7l0.1,0l0.1,0.8l-0.2,1.3c0,0.9,0.1,1.9,0.7,2.7
		c0.4,0.5,1.1,0.8,1.7,0.7c0.1,1.2,0.3,2.3,0.4,3.5l0,0l0.1,1.2l0.1,1.5h0.1l0.4-1.2c0.1-1.1-0.1-2.2-0.1-3.3c0-0.8-0.1-1.5-0.2-2.3
		l0.7-0.8l0.4-0.6l0.1,0l0.5,1.1l1.6,0.5l1.3-0.9c0.4-0.6,0.4-1.3,0.3-2c-0.1-0.9-0.4-1.7-0.6-2.5l0.4-0.2l0-0.5l-0.4-0.7l-0.7-0.7
		l-0.6,0.6L19.3,28l0.4,1c0.4,1,0.7,2,0.8,3l-0.3,0.6l-1.2-0.2l-0.5-0.9c-0.2-0.8-0.4-1.6-0.3-2.5c0.2-0.8-0.2-1.7-0.8-2.2L17,27
		c-0.2,0.6-0.3,1.3-0.1,1.9c0.2,0.8,0.3,1.6,0.5,2.4l-0.9,1.5l-0.1-0.5l-0.1-0.6c-0.1-1.1-0.2-2.2-0.3-3.3l0.4-0.5
		c0-0.7-0.3-1.2-0.6-1.8l-0.5-0.6l-0.6,0.9l0.2,0.8c-0.1,0.6,0.2,1.2,0.3,1.8c0.1,0.6,0.1,1.3,0.2,1.9c0,0.7,0.1,1.4,0.2,2.1
		L15,32.8l-0.7-1.1l-0.1-0.4l-0.1-1.2l0.4-1.5l0.1-1l-0.6-0.4l-0.8,0.6c-0.4,0.5-0.6,1.1-0.8,1.8l0,0c-0.3,1-0.2,2-0.6,3L11.3,33
		l-0.6-0.7c-0.3-0.8-0.4-1.6-0.5-2.4l-0.1-1.7l-0.2,0c-0.2,0.6-0.3,1.2-0.3,1.8l0,0c0,1.4,0.2,2.7,0.8,4L11.3,34.5z M28.6,30.7
		l-0.7,0.8l-0.3,1.2l0.6,0.7l0.8-0.2l0.7-1.2L29,32.6l-0.7,0.2l-0.2-0.6l0.6-1.4L28.6,30.7z M29.5,26.3l-0.1,0.9l-0.1,0l-0.1-0.5
		L29.5,26.3z M29.5,28.6l0.5-0.2L30,27.8l0.4-1.1l-0.2-1.1l-1-0.1l-0.7,0.8c-0.2,0.6-0.1,1.3,0.4,1.8c-0.7,1-1.7,1.9-2.7,2.6
		l-0.9,0.7l0,0.2l1.1-0.3C27.6,30.6,28.7,29.8,29.5,28.6 M18.8,26.5l0.3,0.4l0.4,0l0.3-0.5l-0.2-0.6l-0.4,0.6L19,25.5l-0.1,0
		l-0.5,0.9L18,26.2l-0.1-0.7l-0.1-0.2l-0.1,0l-0.2,0.9l0.6,0.7L18.8,26.5z M13.8,37.3l1.1-0.4l0-0.8l-0.3,0c-0.7,0.2-1.5,0.5-2.1,1
		c-0.9,0.6-1.8,1.3-2.3,2.2l1-0.6C12,38.1,12.9,37.7,13.8,37.3 M11,45.5c-0.2-0.8,0-1.6,0.2-2.3l0.1-1.6l-0.1,0L10.7,43
		c-0.3,0.6-0.4,1.3-0.4,2l0.1,1.5l0.8,0.7l1-0.9l0-1.2l-0.7,0.7L11,45.5z M75.5,33.9c-0.2-1.8-0.5-3.6-0.4-5.4l0.6,0.2l-0.1-0.7
		c-0.3-0.7-0.7-1.5-1-2.2l-0.3-0.5l-0.4,0.3l-0.5,0.8l0.1,1c0.1,0.8,0.2,1.6,0.3,2.4l0.1,1L74,32c0.3,2.4,0.5,4.9,0.7,7.4
		c0.1,1.2,0.1,2.5-0.3,3.6c-0.3,1-1,1.8-1.8,2.5c-0.6,0.5-1.3,1-2,1.5L70,47.5l1.5-0.2c1.1-0.3,2.2-0.8,2.9-1.7
		c0.7-0.9,1.1-1.9,1.3-3l0,0c0.2-1,0.3-2,0.2-3C75.9,37.7,75.7,35.7,75.5,33.9 M67.9,35.8c0-0.6-0.1-1.2-0.1-1.8
		c0.7,1,1.5,2.1,2.2,3.1l0.2,0.6c0.1,0.7,0.2,1.4,0.3,2.2c0.1,0.9,0,1.7,0,2.6l0.2,0.4l0.4-1.1l0.1-1.3c-0.1-0.7,0-1.4-0.1-2.1
		c0.8,1,1.5,2.1,2.3,3.2l0.7,1.1l0.1,0L74,41.1c-0.3-1.2-1.1-2.1-1.8-3.2c-0.4-0.7-0.9-1.3-1.4-2c-0.1-0.8-0.1-1.6-0.2-2.4
		c-0.1-1.1-0.3-3.5-0.3-3.5l0-1l0.2,0.1l0.2-0.1l0-0.6c-0.2-0.7-0.4-1.4-0.6-2.2l-0.5-1.1l-0.4,0.2l-0.6,1l0.1,0.8
		c0,1.5,0.2,2.9,0.4,4.4c0.1,0.9,0.3,1.8,0.4,2.7c-0.6-0.9-1.3-1.8-2-2.7c0-1-0.1-1.9-0.2-2.9l0.4,0.2l0-0.4c-0.3-0.9-0.6-1.8-1-2.7
		l-0.3-0.3l-0.7,1.2l0.2,1.1c0,0.6,0.1,1.2,0.2,1.8l-1-1.5h0.4l0.1-0.2l-0.2-0.4c-0.5-0.6-1.2-1-1.7-1.6l-0.7-0.3l0,0.3l0,1.4
		l0.6,1.3c0.9,1.1,1.8,2.3,2.7,3.5l0.1,1.2c0,0.6,0.1,1.2,0.1,1.8l0,0c0.1,2.1,0.3,4.2,0.2,6.3l-0.4,1.2L65.7,43l-0.9-0.4l-1.2-1.4
		l-0.7,0l-0.8,1.1c-0.6,0.9-1.1,1.9-1.5,2.8L60,45.9l-0.7,0l-0.5-0.8l0.6,0.2l0.8-0.6c0.4-0.7,0.7-1.6,0.8-2.4
		c0.1-1.2-0.2-2.4-0.4-3.6c-0.1-0.8-0.2-1.5-0.3-2.3l0,0c-0.1-1.2-0.3-2.4-0.4-3.6c-0.1-0.9-0.2-1.8-0.3-2.7l0.9-0.4l-0.2-1
		c-0.4-0.6-0.7-1.4-0.9-2.1L59,25.2l-0.7-0.4l-0.7,0.4l-0.7,1.5c-0.1,0.7,0,1.4,0.2,2.1c0.2,0.6,0.2,1.3,0.3,2
		c0.2,1.7,0.4,3.4,0.7,5c0.1,1.1,0.3,2.2,0.4,3.2c0.2,1.5,0.5,3,0.4,4.6l-0.2,1l-0.2-1.4l-0.1-1.6l-0.1,0l-0.4,1.4
		c-0.2,1-0.4,2-0.1,2.9c0.2,0.6,0.8,1,1.3,1.4l0.9,0.4l0.6-0.4c0.6-0.8,1.1-1.7,1.5-2.6l0.9-1.5l0.4-0.2l0.7,0.9
		c0.5,0.6,1.3,0.9,2,0.9c0.7,0,1.3-0.4,1.6-0.9c0.5-0.8,0.6-1.8,0.6-2.7l0,0C68.1,39.4,68,37.6,67.9,35.8 M67.4,46.5l0.3-1l-0.1-0.2
		l-1.1-0.1l-0.2,0.6l0.5,0.5l-0.7,1l0.5,0.3L68,47l0-0.4L67.4,46.5z M19.5,38l-0.1-1l0.2-0.1l0.6,0.2l0.6,0.6L19.5,38z M22.3,45.6
		c0.7-0.6,1.2-1.4,1.4-2.3c0.3-1.2,0.3-2.4,0.2-3.6l-0.1-1.5l0.1-0.3l0.1,0l1.1,0.8l1.4-0.3l0.5-0.5l0.2,0l0.5,0.5l1.2,0.2l0.7-0.6
		l0.2-1.6l-0.2-1l-0.7,0.4l0.1,0.3l0.1,0.8l-0.5,0.6l-0.7-0.5l-0.4-1.6l-0.1,0l-0.7,1.5l-0.9,0.7l-0.6-0.4L25,35.8l-0.3-0.3
		l-0.9,0.8c-0.1-1-0.1-2.1-0.2-3.1c-0.1-1.2-0.2-2.5-0.3-3.7l0.4,0.2l0.3-0.3l-0.1-0.8c-0.3-0.6-0.5-1.3-0.7-2l-0.4-1L22.2,26
		l-0.5,0.7l0.2,0.8l0,0.5l0.1,1.7l0.1,0.5l0,0l0.2,1.6l0,0c0.2,1.7,0.4,3.3,0.5,5l-0.9,0.5l-1.2-1.5l-1-0.4l-0.9,0.7l-0.6,1.4l0,1.5
		l0.3,0.4l1.3,0.2l1.5-0.5l-0.1,1l-0.4,0.5l-1.6,1.4c-0.6,0.4-1.3,0.8-2,0.9l-1.4-0.4c-0.7-0.8-0.9-1.9-0.8-2.9l0.1-1l-0.4,0.7
		c-0.2,0.6-0.3,1.2-0.3,1.8c0,0.6,0,1.3,0.3,1.9c0.4,0.7,1,1.4,1.9,1.5c1,0.1,2-0.3,2.9-0.8c1.1-0.7,2.2-1.6,2.7-2.9l0,0
		c0.2-0.7,0.1-1.4,0.1-2.1l0.7-0.4c0,0.8,0,1.5,0,2.3l-0.1,1.6l0,0C22.5,43,22,43.6,21.5,44c-0.9,0.8-2,1.3-3.1,1.6
		c-0.6,0.2-1.3,0.3-2,0.3c-0.7,0-1.5-0.2-1.9-0.8c-0.6-0.6-0.7-1.5-0.8-2.3v-1.2l0-1.8c-0.5,0.9-0.6,1.9-0.7,2.9
		c-0.1,1.2,0.1,2.4,0.6,3.5l0.7,0.9c0.6,0.4,1.3,0.6,2.1,0.6c1.2,0,2.5-0.3,3.6-0.7C20.8,46.6,21.6,46.2,22.3,45.6 M32.9,33.5
		l0.9-0.7c0.3-0.8,0.6-1.7,0.9-2.5l0.4-0.9l0.1,0l0,0.5c-0.1,0.8-0.1,1.7,0.1,2.5l0.9,1.4L38,34c0.9-0.4,1.6-1,2.1-1.9
		c0.5,0.6,1.1,1.3,1.9,1.4l1.5-0.7c0.5-0.8,0.6-1.7,0.5-2.6c-0.1-0.6-0.2-1.2-0.3-1.9l-0.3-0.9l0.6,0.4l0.4,0l-0.1-0.6l-1-1.6
		l-0.7-0.4l-0.3,0.6l-0.5,0.8l0.5,1.2c0.2,0.7,0.4,1.4,0.6,2.2l-0.1,1.7l-0.7,0.5l-0.8-0.6c-0.5-0.7-0.7-1.6-0.8-2.4
		c0-0.8-0.1-1.7-0.2-2.5c-0.1-0.6-0.3-1.2-0.6-1.8h-0.2L39,26l0.1,0.9c0.2,1,0.4,2.1,0.4,3.1l-0.4,1.5l-1.2,0.9l-1.2,0l-0.6-1.2
		c0-1.1-0.1-2.2,0.1-3.3l0.1-1L36,26.6l-0.5,0.2c-0.5,0.6-0.8,1.2-1.1,1.9c-0.5,0.9-0.9,1.8-1.2,2.8L32.5,32l-0.8-1.1l-0.1-0.5
		c-0.1-0.7-0.1-1.4-0.1-2.1l0.2-1.2l-0.1,0c-0.3,0.7-0.5,1.5-0.6,2.2c-0.1,1.2,0.2,2.5,1,3.5L32.9,33.5z M65.4,68
		c-0.4,0-0.9,0-1.3,0c-0.3,0-0.5,0-0.8,0l-0.5-0.4l-0.4,0.2l0,0.2c-0.7,0.1-1.4,0-2,0.1L60,67.7l0-0.6c1.8-0.1,3.7-0.1,5.6-0.2
		L65.4,68z M65.7,65.3c-1.9,0-3.8,0.1-5.7,0.1l0-0.6l0.3-0.8l-0.5-0.8l-0.3,0L59,64l0.4,0.9l0,0.5c-7.1,0.1-14.1,0.1-21.2,0.1
		c-0.7,0-1.5,0-2.2,0c-0.6,0-1.2,0-1.8,0c-3.6,0-7.2-0.1-10.7-0.1c-0.9,0-1.8,0-2.7,0c-0.9,0-1.8,0-2.7,0c0.5,0.7,1.2,1.2,2,1.5
		c1.3,0.5,2.7,0.6,4.1,0.7c1.5,0.1,3,0,4.4,0.1c4.7,0,9.4,0,14,0c4.3,0,8.6-0.1,12.8-0.2c1.3,0,2.7-0.1,4-0.1v0.6L59,68.3l0.6,1.1
		h0.1l0.4-0.6c0.7,0,1.4-0.1,2.1,0l0.5,0.4l0.5-0.5c0.7,0,1.5,0,2.2,0l0.6,0.5l1-0.3l0.4-1.6l-0.5-1.5L65.7,65.3z M64.7,35.6
		c-0.8,0.7-1.7,1.3-2.5,2L62,38.2l0.8-0.4c0.6-0.5,1.3-0.9,2-1.3l0.7-0.5l0-0.9L64.7,35.6z M52.4,27.5l0,1.6l0.4-0.5
		c0.4-0.9,0.1-1.8-0.3-2.6l-0.6-0.5l-0.4,0.9l0.3,0.4L52.4,27.5z M52.7,30.3l-0.3,0.8l-0.2,0.1L52,30.6l-0.1,0l0.2,1.2l0.8-0.4
		l0.5,0.3l0.4-0.1l0.1-0.2l-0.1-1.3l-0.1,0l-0.1,0.2l-0.4,0.8l-0.3-0.8L52.7,30.3z M55,31c0.2,1.6,0.4,3.2,0.5,4.9
		c0.1,1.6,0.2,3.2,0.3,4.8c0.1,0.6,0.1,1.3,0.1,1.9c-0.1,0.9-0.5,1.7-1.1,2.4c-0.8,0.8-1.6,1.7-2.7,2.2l-1.6,0.7V48l1.2,0.1
		c0.7-0.1,1.4-0.1,2.1-0.4c0.8-0.5,1.3-1.2,1.9-1.8c0.7-0.8,1.1-1.9,1.2-3c0.1-1.1,0.1-2.1,0.1-3.2c0-1.7-0.2-3.5-0.4-5.2
		c-0.2-1.8-0.5-3.6-0.4-5.5l0.6,0.2l0-0.5L56.1,27L56,26.5l0,0l-0.3-0.9l-0.3,0.1l-0.8,0.8l-0.1,0.9l0.2,0.5
		C54.7,28.9,54.9,30,55,31 M61.9,32.9l0.3-0.2l0.8,1.4l0.3,0.5l0.3-0.4c0-0.7,0-1.4,0-2.1l0.2-0.4l0.7,0.1l0-0.4l-0.3-0.6l-0.2-0.1
		l-0.7,0.8l0.1,1.4l-0.1,0.7l-0.4-0.9L62,31.5l-0.4,0.1L61.5,32v0.6l0.1,0.2L61.9,32.9z M37.8,27.8l0,1.4H38l0.2-0.7
		c0.1-0.7,0.1-1.5-0.2-2.2l-0.4-0.7l-0.4,0.3l0.1,0.5L37.8,27.8z M65.6,39.6c0.2-0.7-0.1-1.4-0.6-1.9l-0.5-0.1l-0.4,0.7l0.9,0.8
		l0,1.2L65.6,39.6z M44.9,27.4l0.8,0.7c1.1,1.5,2.2,2.9,3.2,4.4c0.1,0.6,0.2,1.3,0.3,1.9l0,0l0.1,1c0.3,2.2,0.6,4.3,0.7,6.5
		c0,0.9,0.1,1.9-0.2,2.8l-0.1,1l0.4-0.5c0.6-1.4,0.7-2.9,0.7-4.3l0,0c0-1.4-0.3-2.7-0.4-4.1c0-0.7-0.1-1.4-0.1-2.1
		c1.4,2.2,2.8,4.4,3.9,6.7l0.7,1.6l0.2,0c0-0.9-0.3-1.8-0.6-2.7c-0.6-1.4-1.3-2.7-2.1-4c-0.7-1.2-1.4-2.4-2.2-3.5l-0.2-1
		C50,31,50,30.2,50,29.5l0.5,0.2l0.1-0.2l-0.2-1c-0.3-0.8-0.6-1.6-1-2.5L49,25.7l-0.5,0.4L48.2,27l0.3,0.8c0,0.9,0.2,1.8,0.3,2.7
		l-0.1-0.1c-0.5-0.7-1-1.4-1.5-2.2l0.8,0l-0.4-0.8c-0.7-0.7-1.4-1.3-2.2-2l-0.6-0.2l-0.1,0.2l0.1,1.2L44.9,27.4z M39.8,36.3H40
		l0.5,0.3l0.6-0.6l-0.3-1.4l-0.1,1L40.6,36l-0.2,0L40,35.4l-0.3-0.5l-0.1,0.8l-0.1,0.4l-0.3,0l-0.4-1.1L38.7,35l0.1,1.7l0.6,0.3
		L39.8,36.3z M26.8,42.7l0.2-0.1l0.5-1.1l0-1.2l-1-0.2l-0.1,0.9L27,41l0,0.9L26.8,42.7z M43.7,35.9l1.2,0.5l0.4,0.3l-1.5,0.4
		l-0.1-1.1L43.7,35.9z M48.7,40.2l-1.2,0c-1.7,0.1-3.4,0.1-5.1,0.1c-0.2,0-0.4,0-0.6,0c-0.5,0-1,0-1.5,0c1.1-0.6,2.3-1,3.4-1.5
		l0.7,0.1l0-0.3c0.6-0.2,1.3-0.5,1.8-1l0.6-1.4l-0.9-1.3c-0.6-0.4-1.2-0.8-2-0.7l-1,0.5l-0.8,1.6l0.4,1.3c-1,0.3-2,0.7-2.9,1
		l-1.4,0.6l-0.7,1.2l-0.2,0.9l0.6,0.2c0.7,0,1.3,0,2,0.1c0.6,0,1.3,0.1,1.8,0.5l0.2,0.2c-0.8,0.3-1.7,0.9-2,1.7l0,1.4
		c-0.9-0.3-1.9-0.7-2.3-1.6c-0.6-1-0.6-2.2-0.8-3.3c-0.1-0.7-0.3-1.5-0.4-2.2v0.1c-0.3-1.4-0.9-2.6-1.4-3.9l-0.4-0.8l-0.5,0.9
		l-0.1,1.2c0.4,1.1,0.8,2.2,1.1,3.3l0,0l0.4,1.4l0,0l0.3,1.1c-0.6,1.2-1.4,2.2-2.3,3.1c-0.7,0.6-1.5,1.2-2.5,1.4l-1.3-0.2l-0.3-1
		c1-0.5,1.9-1.2,2.6-2c0.6-0.6,1.2-1.3,1.4-2.2c0.2-0.7,0.1-1.4,0-2.1l-0.1-0.6l-0.4-1.1l0.4-0.1l-0.4-1L32,35l-0.5,0l-0.4,0.8
		l-0.2,0.8l0.5,0.5c0.3,0.6,0.6,1.2,0.9,1.9l0.2,1.2l-0.8,1.2c-0.7,0.6-1.4,1.2-2.1,1.7v-0.9l0-1.2h-0.1c-0.4,0.6-0.6,1.4-0.9,2.1
		l-0.2,0.9l-0.1,0.2c-1.3,0.9-2.6,1.6-3.9,2.4l-1.7,0.9l0,0.2l0.4,0c1.8-0.5,3.6-1.1,5.3-1.9c0.1,0.6,0.2,1.3,0.7,1.8
		c0.5,0.6,1.4,0.6,2.1,0.6c1.2-0.2,2.2-0.9,3-1.7c0.8-0.8,1.5-1.7,2.2-2.7c0.4,0.9,0.9,1.8,1.6,2.5c1.2,1.1,2.8,1.6,4.4,1.7l0.9-0.3
		l0.3-1.2l-1-0.4l-1.2-0.9l0-0.9l1.3-0.7c1.4-0.5,2.9-1,4.3-1.3l1.2-0.3l0.5-1L48.7,40.2z M72.1,29.7l0.1,1h0.1l0.3-1.5
		c0-0.9-0.2-1.9-0.7-2.6l-0.5,0.6l0.1,0.6C71.8,28.4,72,29,72.1,29.7 M46.2,47.5c0.7,0,1.3-0.5,1.8-0.9l0.5-0.6l-0.4,0
		c-0.6,0.2-1.2,0.6-1.8,0.7l-0.1-0.3l0.2-1.4l-1.1,0.5L44.8,46l0.9-0.2l-0.1,1.4L46.2,47.5z"/>
</g>
</svg>
