<?xml version="1.0" encoding="utf-8"?>
<!-- Generator: Adobe Illustrator 24.0.1, SVG Export Plug-In . SVG Version: 6.00 Build 0)  -->
<svg version="1.1" id="katman_1" xmlns="http://www.w3.org/2000/svg" xmlns:xlink="http://www.w3.org/1999/xlink" x="0px" y="0px"
	 viewBox="0 0 85 85" style="enable-background:new 0 0 85 85;" xml:space="preserve">
<style type="text/css">
	.st0{fill:#F6F6F6;}
	.st1{fill:#E52A18;}
	.st2{fill:#24356B;}
</style>
<g>
	<path class="st0" d="M1.6,32.4C7.2,9.8,30.1-3.9,52.6,1.6c22.6,5.6,36.3,28.4,30.8,51C77.8,75.2,55,89,32.4,83.4
		C9.8,77.8-3.9,55,1.6,32.4"/>
	<path class="st1" d="M81.5,26.5H48.8V33h34.7C83,30.7,82.3,28.6,81.5,26.5 M73.1,13.6H48.8v6.5h29.3C76.7,17.8,75,15.6,73.1,13.6
		 M12.1,71.6h60.8c1.9-2,3.6-4.1,5.1-6.4H7C8.5,67.5,10.2,69.7,12.1,71.6 M52.6,1.6c-1.3-0.3-2.5-0.6-3.8-0.8v6.3h16.6
		C61.6,4.7,57.3,2.8,52.6,1.6 M84.5,39.4H48.8v6.5h35.7C84.7,43.7,84.7,41.5,84.5,39.4 M3.7,58.8h77.7c0.8-2,1.5-4,2-6.1
		c0-0.1,0.1-0.2,0.1-0.3H1.6C2.1,54.5,2.8,56.7,3.7,58.8 M32.4,83.4c2.5,0.6,5,1,7.5,1.2h5.4c7.1-0.5,13.9-2.7,19.8-6.5H20
		C23.7,80.5,27.9,82.3,32.4,83.4"/>
	<path class="st2" d="M45.7,43.5l-0.9-0.7l-0.9,0.7l0.3-1.1l-0.9-0.7h1.1l0.3-1.1l0.3,1.1h1.1l-0.9,0.7L45.7,43.5z M41.2,9.6
		l0.3,1.1L40.6,10l-0.9,0.7l0.3-1.1l-0.9-0.7h1.1l0.4-1.1L41,8.9h1.1L41.2,9.6z M41.2,19.2l0.3,1.1l-0.9-0.7l-0.9,0.7l0.3-1.1
		l-0.9-0.7h1.1l0.4-1.1l0.3,1.1h1.1L41.2,19.2z M41.1,28.7l0.3,1.1l-0.9-0.7l-0.9,0.7l0.3-1.1l-0.9-0.7h1.1l0.3-1.1l0.3,1.1H42
		L41.1,28.7z M41.4,39.2l-0.9-0.7l-0.9,0.7l0.3-1.1L39,37.5h1.1l0.3-1.1l0.3,1.1h1.1L41,38.1L41.4,39.2z M36.9,14.2l0.4,1.1
		l-0.9-0.7l-0.9,0.7l0.4-1.1l-0.9-0.7H36l0.4-1.1l0.3,1.1h1.1L36.9,14.2z M36.9,23.6l0.4,1.1L36.3,24l-0.9,0.7l0.4-1.1L34.9,23H36
		l0.4-1.1l0.3,1.1h1.1L36.9,23.6z M36.9,33.2l0.4,1.1l-0.9-0.7l-0.9,0.7l0.4-1.1l-0.9-0.7H36l0.4-1.1l0.3,1.1h1.1L36.9,33.2z
		 M37.2,43.5l-0.9-0.7l-0.9,0.7l0.4-1.1l-0.9-0.7H36l0.4-1.1l0.3,1.1h1.1l-0.9,0.7L37.2,43.5z M32.8,9.6l0.3,1.1L32.2,10l-0.9,0.7
		l0.3-1.1l-0.9-0.7h1.1l0.3-1.1l0.3,1.1h1.1L32.8,9.6z M32.8,19.2l0.3,1.1l-0.9-0.7l-0.9,0.7l0.3-1.1l-0.9-0.7h1.1l0.3-1.1l0.3,1.1
		h1.1L32.8,19.2z M32.7,28.7l0.3,1.1l-0.9-0.7l-0.9,0.7l0.3-1.1l-0.9-0.7h1.1l0.3-1.1l0.3,1.1h1.1L32.7,28.7z M32.9,39.2L32,38.5
		l-0.9,0.7l0.3-1.1l-0.9-0.7h1.1l0.4-1.1l0.3,1.1h1.1l-0.9,0.7L32.9,39.2z M28.5,4.9l0.3,1.1l-0.9-0.7L27,5.9l0.3-1.1l-0.9-0.7h1.1
		l0.3-1.1l0.3,1.1h1.1L28.5,4.9z M28.5,14.2l0.3,1.1l-0.9-0.7L27,15.3l0.3-1.1l-0.9-0.7h1.1l0.3-1.1l0.3,1.1h1.1L28.5,14.2z
		 M28.5,23.6l0.3,1.1L27.9,24L27,24.7l0.3-1.1L26.4,23h1.1l0.3-1.1l0.3,1.1h1.1L28.5,23.6z M28.5,33.2l0.3,1.1l-0.9-0.7L27,34.3
		l0.3-1.1l-0.9-0.7h1.1l0.3-1.1l0.3,1.1h1.1L28.5,33.2z M28.8,43.5l-0.9-0.7L27,43.5l0.3-1.1l-0.9-0.7h1.1l0.3-1.1l0.3,1.1h1.1
		l-0.9,0.7L28.8,43.5z M24.3,9.2l0.4,1.1l-0.9-0.7l-0.9,0.7l0.3-1.1l-0.9-0.7h1.1l0.3-1.1l0.3,1.1h1.1L24.3,9.2z M24.3,18.9l0.4,1.1
		l-0.9-0.7L22.9,20l0.3-1.1l-0.9-0.7h1.1l0.3-1.1l0.3,1.1h1.1L24.3,18.9z M24.3,28.4l0.4,1.1l-0.9-0.7l-0.9,0.7l0.3-1.1l-0.9-0.7
		h1.1l0.3-1.1l0.3,1.1h1.1L24.3,28.4z M24.5,38.9l-0.9-0.7l-0.9,0.7l0.3-1.1l-0.9-0.7h1.1l0.3-1.1l0.3,1.1h1.1l-0.9,0.7L24.5,38.9z
		 M20,14.2l0.4,1.1l-0.9-0.7l-0.9,0.7l0.4-1.1L18,13.6h1.1l0.4-1.1l0.3,1.1H21L20,14.2z M20,23.6l0.4,1.1L19.5,24l-0.9,0.7l0.4-1.1
		L18,23h1.1l0.4-1.1l0.3,1.1H21L20,23.6z M20,33.2l0.4,1.1l-0.9-0.7l-0.9,0.7l0.4-1.1L18,32.6h1.1l0.4-1.1l0.3,1.1H21L20,33.2z
		 M20.4,43.5l-0.9-0.7l-0.9,0.7l0.4-1.1L18,41.8h1.1l0.4-1.1l0.3,1.1H21L20,42.4L20.4,43.5z M15.9,18.8l0.3,1.1l-0.9-0.7l-0.9,0.7
		l0.4-1.1l-0.9-0.7H15l0.3-1.1l0.3,1.1h1.1L15.9,18.8z M15.8,28.3l0.3,1.1l-0.9-0.7l-0.9,0.7l0.3-1.1l-0.9-0.7h1.1l0.4-1.1l0.3,1.1
		h1.1L15.8,28.3z M16.1,38.8l-0.9-0.7l-0.9,0.7l0.3-1.1L13.7,37h1.1l0.3-1.1l0.3,1.1h1.1l-0.9,0.7L16.1,38.8z M36,4.2l0.4-1.1
		l0.3,1.1h1.1l-0.9,0.7l0.4,1.1l-0.9-0.7l-0.9,0.7l0.4-1.1l-0.9-0.7H36z M44.4,32.6l0.3-1.1l0.3,1.1h1.1l-0.9,0.7l0.3,1.1l-0.9-0.7
		l-0.9,0.7l0.3-1.1l-0.9-0.7H44.4z M44.4,23l0.3-1.1l0.3,1.1h1.1l-0.9,0.7l0.3,1.1L44.7,24l-0.9,0.7l0.3-1.1L43.3,23H44.4z
		 M44.4,13.6l0.3-1.1l0.3,1.1h1.1l-0.9,0.7l0.3,1.1l-0.9-0.7l-0.9,0.7l0.3-1.1l-0.9-0.7H44.4z M44.4,4.2l0.3-1.1l0.3,1.1h1.1
		l-0.9,0.7l0.3,1.1l-0.9-0.7l-0.9,0.7l0.3-1.1l-0.9-0.7H44.4z M11.6,23.6l0.3,1.1L11.1,24l-0.9,0.7l0.3-1.1L9.6,23h1.1l0.4-1.1
		l0.3,1.1h1.1L11.6,23.6z M11.6,33.2l0.3,1.1l-0.9-0.7l-0.9,0.7l0.3-1.1l-0.9-0.7h1.1l0.4-1.1l0.3,1.1h1.1L11.6,33.2z M12,43.5
		l-0.9-0.7l-0.9,0.7l0.3-1.1l-0.9-0.7h1.1l0.3-1.1l0.3,1.1h1.1l-0.9,0.7L12,43.5z M7.4,28.1l0.3,1.1l-0.9-0.7l-0.9,0.7l0.3-1.1
		l-0.9-0.7h1.1l0.3-1.1l0.3,1.1h1.1L7.4,28.1z M7.7,38.6l-0.9-0.7l-0.9,0.7l0.4-1.1l-0.9-0.7h1.1l0.4-1.1l0.3,1.1h1.1l-0.9,0.7
		L7.7,38.6z M3.6,43.5l-0.9-0.7l-0.9,0.7l0.3-1.1l-0.9-0.7h1.1l0.3-1.1L3,41.8h1.1l-0.9,0.7L3.6,43.5z M48.8,0.9
		c-0.4-0.1-3.5-0.4-3.9-0.5l-7.6,0.3c-7.8,1-15.2,4.1-21.3,9l0.2,0.5l-0.4-0.3c-1.4,1.1-2.7,2.4-4,3.7h0.6l-0.9,0.7l0.3,1.1
		l-0.9-0.7l-0.4,0.3c-0.8,1-1.7,2-2.4,3.1h0.1l-0.3,0.2C8,18.4,7.8,18.7,7.6,19l0.2,0.8l-0.5-0.4c-2.6,3.9-4.5,8.3-5.7,13.1
		c0,0.1,0,0.1,0,0.2h0.7l0.3-1.1L3,32.6h1.1l-0.9,0.7l0.3,1.1l-0.9-0.7l-0.9,0.7l0.3-1.1l-0.5-0.4c-1,4.4-1.3,8.8-1,13.1h48.3V0.9z"
		/>
</g>
</svg>
